<svg xmlns="http://www.w3.org/2000/svg" viewBox="0 0 33.83 33.83" id="dark"><g data-name="Layer 2"><g data-name="Layer 1"><path d="M9.18,9.18a10.93,10.93,0,1,0,3.49-2.35A11,11,0,0,0,9.18,9.18Zm7.76,16.89a9.13,9.13,0,1,1-.2-18.26h.2Z" data-name="Path 4642"></path><path d="M16.92,33.83A16.92,16.92,0,1,1,33.83,16.92,16.94,16.94,0,0,1,16.92,33.83Zm0-31.13A14.22,14.22,0,1,0,31.14,16.92,14.24,14.24,0,0,0,16.92,2.7Z"></path></g></g></svg>

<svg xmlns="http://www.w3.org/2000/svg" fill="none" viewBox="0 0 24 24" id="Love"><path fill="#f30808" d="M4.379 12.274A4.841 4.841 0 0 1 3 8.89C3 6.189 5.216 4 7.95 4c1.674 0 3.154.82 4.05 2.077A4.962 4.962 0 0 1 16.05 4C18.784 4 21 6.189 21 8.889a4.845 4.845 0 0 1-1.507 3.512L12 20l-7.621-7.726Z" class="color000000 svgShape"></path></svg>